<svg xmlns="http://www.w3.org/2000/svg" xmlns:xlink="http://www.w3.org/1999/xlink" width="332" height="550" viewBox="0 0 332 550">
  <defs>
    <clipPath id="clip-path">
      <rect id="Rectangle" width="332" height="550" transform="translate(40 40)" fill="rgba(63,10,61,0.03)"/>
    </clipPath>
  </defs>
  <g id="Blobs_Left" data-name="Blobs Left" transform="translate(-40 -40)" clip-path="url(#clip-path)">
    <path id="blob" d="M345.113-13.21c35.741,41.81,26.3,123.07-1.686,182.076s-74.179,95.759-131.5,132.174c-57.657,36.752-126.1,73.5-166.9,53.274-40.8-19.894-53.611-96.77-74.179-175.333S-78.046,20.508-50.06-19.954c27.986-40.124,112.28-40.8,195.226-39.787C227.774-58.392,309.372-55.357,345.113-13.21Z" transform="translate(-23.504 44.235)" fill="rgba(150,81,81,0.1)"/>
    <path id="blob_2_" data-name="blob (2)" d="M287.915,13.2c31.215,44.221,28.325,117.634-4.046,160.987-32.66,43.354-94.8,56.071-150.583,52.314-55.493-3.757-104.338-24.567-144.513-72.257S-82.905,31.99-58.338-8.185C-34.06-48.359,46.289-54.14,119.124-49.8,191.669-45.469,256.7-30.729,287.915,13.2Z" transform="translate(150.591 446.172) rotate(180)" fill="rgba(2,103,107,0.35)"/>
  </g>
</svg>
