<svg xmlns="http://www.w3.org/2000/svg" xmlns:xlink="http://www.w3.org/1999/xlink" width="163" height="236" viewBox="0 0 163 236">
  <defs>
    <clipPath id="clip-path">
      <rect id="Rectangle_13" data-name="Rectangle 13" width="163" height="236" transform="translate(-1126 -3684)" fill="#fff" stroke="#707070" stroke-width="1"/>
    </clipPath>
  </defs>
  <g id="Pattern" transform="translate(1126 3684)" clip-path="url(#clip-path)">
    <g id="_33" data-name="33" transform="translate(-1150.52 -3634.214)">
      <path id="Fill_265" data-name="Fill 265" d="M8.571.059H9.93c.419.321,0,.834.319,1.207l.935.051C11.494.68,11.714-.245,12.816.06c.423.1.087.648.392.785.643.212,1.084-.145,1.684-.472.78,1.095,2.2,1.357,3.152,2.337.185.753-.145,1.595.438,2.331a1.186,1.186,0,0,1-.1,1.156c-.677.64.143,1.295-.075,1.732-.322.647-.065,1.159-.192,1.659.583.242.789-.07,1.171-.47.072,1.543.322,2.933-.481,4.285l-1.114.123c.185.675-.452,1.168-.425,1.838a5.235,5.235,0,0,1-.863,3A4.272,4.272,0,0,0,16,20.74l-1.991,1.826-.283-.235c-.291.243-.581.658-.951.751-.509.126-.855.663-1.5.479a5.038,5.038,0,0,0-1.461-.022,4.1,4.1,0,0,0-1.22.093c-.483.168-.894.645-1.373.709a21.789,21.789,0,0,1-2.794.034c-.493-.937-1.571-1.159-2.434-1.544A3.518,3.518,0,0,1,.1,20.663c-.337-.9.247-1.831.67-2.618a7.207,7.207,0,0,1,2.222-2.612c-.708-1.138-1.357-2.229-.42-3.5.27-3.69,2.572-6.493,4.219-9.574.437-.817,1.508-1.2,1.779-2.3" transform="translate(0 109.892)" fill="#3f0a3d"/>
      <path id="Fill_267" data-name="Fill 267" d="M10.406.2l-.371.448c.1.327.435.175.668.3.387.287-.115.821.326,1.168.142-.015.406.037.505-.068,1.282-1.346,1.515-.786,2.653.23a.519.519,0,0,0,.393.139c2.618.228,3.635,1.251,3.929,3.833.341.042.447-.505.928-.294.258.846,1.332,1.382,1.094,2.589-.049.252.482.618.745.931-1.008.839.935,2-.274,2.82.025.538.635.635.75,1.1.134.539-.288.865-.426,1.3a23.925,23.925,0,0,1-2.261,4.087c-.63,1.148-2.037,1.635-3.117,2.259-.582-.115-.767-.625-1.167-.86-.122.309-.216.55-.375.952-.273-.4-.5-.728-.708-1.032-.569.371-.176.875-.472,1.275H10.366l-.783-.784c-1,.968-1.852.2-2.751-.368-1.189,1.2-2.4-.627-3.623.058C2.682,19.7,1.89,19.4,2.016,18.447c.014-.1-.1-.322-.174-.329C.421,17.973.551,16.578,0,15.778a6.329,6.329,0,0,1,1.692-2.2c.154-.142.3-.423.446-.424C4,13.151,4.079,11.392,4.9,10.372A8.221,8.221,0,0,0,6.18,7.343,12.989,12.989,0,0,0,6.7,4.177c.039-1.184-.028-2.651,1.627-3.132.295-.086.515-.46.745-.721C9.469-.124,9.9-.048,10.406.2" transform="translate(136.483 38.152)" fill="#3f0a3d"/>
      <path id="Fill_269" data-name="Fill 269" d="M17.072,20.942a5,5,0,0,1-2.264.522,45.983,45.983,0,0,0-4.819.008,7.526,7.526,0,0,1-2.3-.25c-.542-.141-.9.659-1.34.055-.356-.492-.925-.108-1.354-.267-.485-.179-.89-.629-1.529-.308-.285.121.186.775-.465.722-1.267-.087-.525-1.731-1.583-2.041-.075.216-.162.458-.253.716a.522.522,0,0,1-.56-.41C.479,18.634-.1,17.666.016,16.567a3.312,3.312,0,0,1,.292-1.14,7.25,7.25,0,0,0,.931-3.784c-.084-.817.591-1.33.5-2.141-.078-.692-.375-1.538.379-2.128,0-1.257.074-2.521-.018-3.771C1.976,1.948,2.947.963,4.083.064c.168-.132.533-.018.785-.018a4.763,4.763,0,0,1,.658,2.385A4.944,4.944,0,0,1,6.505.874C7.052.394,7.527.248,8.1.78c.241.223.4.565.829.529a3.169,3.169,0,0,1,2.76,1.411c.668.812,1.7,1.269,1.864,2.6.117.959.965,1.812,1.4,2.753,1.165,2.521,2.342,5.039,3.391,7.609.505,1.238-.018,2.487-.5,3.664-.22.537-.5,1.048-.773,1.6" transform="translate(87.723 46.533)" fill="#3f0a3d"/>
      <path id="Fill_271" data-name="Fill 271" d="M5.82.034c.062.762-.112,1.578.213,1.933.535.582-.628.942.056,1.392C7.161,2.531,7.112.981,8.11.106a3.992,3.992,0,0,1,1.737,1.14c.572.1.648-.272,1.012-.43a8.873,8.873,0,0,1,3.172,2.165,7.909,7.909,0,0,1,1.921,4.647,24.5,24.5,0,0,0,.012,2.516c.273,2.744-.569,5.28-1.392,7.819a9.547,9.547,0,0,1-1.587,2.884c-.478.293-.971.1-1.57.17l-.868-.868c-.588-.072-.686.754-1.242.855-.341.06-.472-.232-.684-.406l-.475.432c-.089-.26-.173-.5-.258-.748-.1-.138-.172-.1-.3.056-.941,1.121-2.216,1.176-3.561,1.066-.858-.55-1.359-1.507-2.588-1.8C.174,19.3-.345,17.23.238,15.963.716,14.924,1.3,13.969.464,12.8a1.7,1.7,0,0,1-.006-1.428c.514-1.1.408-2.324.8-3.444.363-1.041.577-2.138.984-3.16a2.837,2.837,0,0,0,.292-.929A7.517,7.517,0,0,1,3.991.46c.4-.678,1.1-.4,1.829-.426" transform="translate(109.97 94.383)" fill="#3f0a3d"/>
      <path id="Fill_273" data-name="Fill 273" d="M19.106,15.926l-.446-.381c-.1.285-.192.527-.3.815-1.305-.558-2.368.385-3.558.607a19.325,19.325,0,0,1-2.715.342c-.13-.013-.327-.118-.375-.068-.56.572-1.288.292-1.925.438-.548.125-1.031-.738-1.548-.038-1.04-.859-2.258-.245-3.386-.395a15.983,15.983,0,0,0-2.076-.017l-.605-.6c.155-.277.558-.442.381-.9-.59-.411-1.325.006-1.958-.258-.585-.515-.887-1.063-.2-1.728.15-.145.383-.272.431-.448.452-1.64,1.871-1.712,3.158-1.921A13.954,13.954,0,0,0,7.466,10.1c.545-1.433-.276-2.548-.3-3.761C7.142,5.2,7.435,4.03,6.8,2.926c-.152-.262-.255-.887.14-1.153.655-.445.588-1.44,1.341-1.718A1.209,1.209,0,0,1,9.42.313c.379.285.051.886.6.974.427.068.631-.272.82-.527A.939.939,0,0,1,11.963.478a6.756,6.756,0,0,1,1.328.786c.625-.748,1.1.118,1.415.312a9.413,9.413,0,0,1,1.343.828c.42.365.791.788,1.192,1.176a1.547,1.547,0,0,1,.482.858c.055.265.333.351.083.776-.268.459.562.1.739.588.707,1.948,1.951,3.644,2.735,5.569a1.564,1.564,0,0,1,.065,1.144,5.885,5.885,0,0,1-2.239,3.411" transform="translate(45.317 46.549)" fill="#3f0a3d"/>
      <path id="Fill_275" data-name="Fill 275" d="M7.308,0C9.118.1,9.118.1,9.414,2.068A3.379,3.379,0,0,1,11.525.812c.3.8.714,1.569,1.828,1.309a.765.765,0,0,1,.524.225c.835.708,1.159,1.846,2.078,2.488-.045,1.359.878,2.69.378,4-.531,1.393-.665,2.891-1.427,4.234a19.324,19.324,0,0,1-3.367,4.564,1.781,1.781,0,0,0-2.036.858l-.485-.432c-1.365,1.371-1.712,3.5-3.394,4.576-.664.318-1.055-.532-1.533-.359-.625.226-1.033-.572-1.617-.194a2.1,2.1,0,0,1-1.5.092c-.488-.637.7-.924.193-1.5-.376-.078-.57.594-1.078.2a6.747,6.747,0,0,1,.717-3.96c.57-1.438,1.365-2.858,1.295-4.491-.025-.585.378-.972.6-1.432.64-1.355,1.089-2.769,1.6-4.162.645-1.751.838-3.668,1.884-5.3C6.515,1,6.9.564,7.308,0" transform="translate(49.552 0)" fill="#3f0a3d"/>
      <path id="Fill_277" data-name="Fill 277" d="M4,16.429c-.362.421.054.932-.37,1.226a.828.828,0,0,1-1.021-.749c.156-1.45-.8-2.1-1.736-2.83a8.287,8.287,0,0,1-.745-.735c-.385-.857.2-1.528.433-2.269.312-.22.655-.085.987-.088.335.178,0,.915.72.8.472-.162.65-.857.652-1.065A6.95,6.95,0,0,1,3.825,7.3c-.606-1.308.385-2.428.434-3.667A5.215,5.215,0,0,1,5.842.312C6.211-.092,6.612.15,6.994,0c-.028.718.859.944.4,2.127C8.146,1.3,8.115.432,8.811.491a7.455,7.455,0,0,1,3.278.615c.838.539,2.335.772,2.233,2.332a.473.473,0,0,0,.168.342c1.6,1.242,1.722,3.2,2.324,4.9a12.519,12.519,0,0,1,.886,4.254c0,.835-.862,1.46-.4,2.278-.468.743-1.335,1.095-1.471,2.176-1.7-1.4-3.378.321-5-.172-.372.183-.222.525-.382.759a.521.521,0,0,1-.646.012c-.7.25-.307.817-.771.894-.228-.134-.156-.358-.172-.578-.427-.493-1.05-.027-1.539-.289-.238-.239-.485-.486-.738-.738-.717.458-.844,1.271-1.215,2.037a1.151,1.151,0,0,1-.709-1.229c.054-.619.092-1.265-.656-1.656" transform="translate(66.296 99.396)" fill="#3f0a3d"/>
      <path id="Fill_279" data-name="Fill 279" d="M16.195,20.656c-.255-.4-.1-.738-.425-.876-.434.452-.015,1.069-.262,1.6l-.739.075V19.431c-.388,1.195-2.115.775-2.323,2.011-.318-.492-.8-.443-1.284-.4-.425.294,0,.808-.308,1.152a3.176,3.176,0,0,1-1.406.054c-.329-.436-.078-.939-.162-1.408A3.063,3.063,0,0,0,7.7,19.648c.208-.342-.064-.888.049-1,.505-.508.083-1.38.845-1.785.7-.374-.136-1.387.6-1.83-.8-.881.376-1.644.137-2.564a10.5,10.5,0,0,1-.047-2.618c-.373-.186-.4.126-.588.2-.555.033-.008-.639-.422-.719-.09.062-.238.107-.277.2a5.98,5.98,0,0,0-.718,3.821,4,4,0,0,1-.122,3.248c-.162.512.815.681.152,1.191-.368.282.142,1-.468,1.272.246.433.313.965.729,1.3-.078.222-.253.238-.458.25a1.013,1.013,0,0,1-1.182-.867c-.113-.529.194-1.1-.165-1.611-.256-.367.19-.87-.242-1.241a.608.608,0,0,1,0-.592c.709-.548.139-1.012.035-1.567a2.435,2.435,0,0,1,.2-1.783,2.788,2.788,0,0,0-.214-2.488c-.194-.473-.615-.2-.807-.485.565-.7.331-1.486.318-2.191a.532.532,0,0,0-.6-.151c-.066.626-.861,1.175-.224,1.875-.548.484-.931,1.268-1.976.987a8.991,8.991,0,0,1,.387-1.366,2.733,2.733,0,0,0,.348-1.318c-.079-.569.611-.9.429-1.507-.186-.623.344-.674.7-.952s-.082-1.043.514-1.361c-.341-.3-.7-.112-1.048-.16-.355.47-.1,1.135-.688,1.621-.864.714-.745.829-1.284,2.874a18.356,18.356,0,0,1-.889,2.2,1.849,1.849,0,0,1-.451-2.5C.587,7.3.749,6.521.993,5.8c.229-.671.108-1.67,1.041-2.092.628-.284.51-1.244,1.2-1.541.228.242.442.543,1,.275L3.446,1.47a.979.979,0,0,1,1.442.259C5.608.608,7.127.953,7.882.037c.658.019.811.592,1.245.869.086-.252.17-.495.257-.745.283-.195.558.652.933-.018.108-.192.8-.164,1.176-.065.295.077.544.4.772.647.327.358.815-.008,1.162.259-.462.688.115,1.135.338,1.632.322.717,1.435.025,1.781,1.151.018.094-.592.246-.371.569.807,1.179.408,2.731,1.236,3.9.066.093-.042.3.02.408.442.732-1.136,1.451-.009,2.174a7.364,7.364,0,0,1-.045,2.292,9.745,9.745,0,0,0-.372,3.2,2.682,2.682,0,0,0,.077.437c.411.068.51-.34.721-.529.146-.132-.1-.534.441-.6.012,1.751.292,3.508-1.051,5.043" transform="translate(41.95 134.639)" fill="#3f0a3d"/>
      <path id="Fill_281" data-name="Fill 281" d="M7.953,11.2c.016-.36.015-.565-.187-.7-.578-.356-.695.777-1.3.342-.145-.047-.185-.149-.092-.243.478-.479,1.2-1.032.571-1.7-.725-.766.441-1.05.215-1.608.658-.18,1.187-.968,1.994-.436.165.109.268.326.694.221a12.063,12.063,0,0,0,3.5-5.445A6.824,6.824,0,0,1,14.455,0c2.488,1.684,2.488,1.684,3.4,1.27a5.067,5.067,0,0,1,1.421,3.472,2.226,2.226,0,0,0,.432,1.5c-.719.888-.12,1.742.2,2.5.4.952.043,1.9.266,2.821.028.116.187.2.319.332-.575.913-.817,2.049-1.922,2.785-.93-.183-2.028.292-3.089-.235a19.387,19.387,0,0,0-3.238-.78A18.221,18.221,0,0,1,9.4,12.246c-.889.184-1.416,1.005-2.087,1.591A5.584,5.584,0,0,0,4.023,15.05c-1.043.218-2.194-.295-3.176.484L0,14.43c1.721.364,1.629.163,4-.927,1.461-.672,2.354-2.125,3.954-2.307" transform="translate(91.11 3.79)" fill="#3f0a3d"/>
      <path id="Fill_283" data-name="Fill 283" d="M1.776,15.174c-.06.529-.1.86-.131,1.145-.128.19-.2.152-.332,0-.218-.258-.49-.438-.463-.866.048-.766-.01-1.538.021-2.306a2.326,2.326,0,0,0-.434-1.708C-.181,10.72.118,9.89,0,9.151A4.374,4.374,0,0,0,1.348,6.472,10.237,10.237,0,0,1,2.084,3.22c.236-.427.039-1.092.039-1.63.438-.45.943-.821,1.034-1.464h.872c.452.453-.015,1.08.3,1.579.329.142.724.229.713-.285-.011-.552.971-.561.2-1.42C6.747.318,7.836.746,8.873.53c.611.078.228.671.765.9a3.455,3.455,0,0,1,2.152,3.311,15.1,15.1,0,0,1-.849,5.32,2.736,2.736,0,0,1-2.617,2.261c-1.368.108-1.971.946-2,2.358-.012.552,0,1.1,0,1.635-.423.3-.422-.242-.633-.235-.557-.247-.738.712-1.348.33-.365-.266.118-.8-.259-1.118-.091.053-.264.105-.265.161-.012.609-.63,1.03-.494,1.7.037.182-.33.162-.535.168-.391-.226-.215-.607-.237-.926-.024-.34-.005-.682-.005-.9-.2-.367-.438-.225-.767-.319" transform="translate(40.727 90.93)" fill="#3f0a3d"/>
      <path id="Fill_285" data-name="Fill 285" d="M11.562,9.148l.888.329a.675.675,0,0,1-.169.763.846.846,0,0,0,.094,1.271c.827.708.686,1.291-.022,2.062a1.68,1.68,0,0,0-.323,1.915c-.385.572-.838-.338-1.044-.139-.5.485-1.048.244-1.571.289-.486.042-.978.008-1.468.008H6.42a9.311,9.311,0,0,1-1.388-1.89,12.656,12.656,0,0,1-.575-1.662c-.174-.661.795-.933.229-1.64-.316-.395-.146-1.178-.2-1.788C3.518,7.872,1.871,8.436,1.233,7l.342-.342C1.348,6.314.757,6.34.634,5.744.568,5.428.482,4.784,0,4.581L.5,3.545c.088.052.252.1.26.163A3.3,3.3,0,0,0,.8,4.531c.1.238.374.4.568.6.331-.117.18-.45.316-.693.474.073,1.011.808,1.4-.241.155.407.247.648.372.976.3-.028.751.067.934-.111.921-.9,2.045-1.671,2.522-2.926A6.451,6.451,0,0,1,8.695,0c.635.412.606.917.325,1.273a1.185,1.185,0,0,0-.1,1.413A6.26,6.26,0,0,0,9.974,1.478c.252-.512.435-.968,1.091-.928.421.488.045,1.1.238,1.591.542.015.311-.348.391-.576a.913.913,0,0,1,1.4.205c.307.428.421.981.9,1.306a.76.76,0,0,1,.178.951,29.461,29.461,0,0,0-1.191,3.907c-.225.738-.679.913-1.42,1.214" transform="translate(5.159 48.553)" fill="#3f0a3d"/>
      <path id="Fill_287" data-name="Fill 287" d="M5.083,0c.42-.008.479.467.844.575l-.432.48a.453.453,0,0,0,.521.2C6.489,1.125,6.607.5,7.181.419c.608.039.9.665,1.444.94,1.377.7,2.158,3.4,1.688,4.937a5.657,5.657,0,0,0,.123,3.711c-.038.188-.382,0-.607.135-.472.606.055,1.085.285,1.612-.148.589-.761.781-1.015,1.272a1.842,1.842,0,0,0-2.034-.478c-.751.274-1.078-.6-1.556-1l.369-.46c-.538-.445-.806-.012-1.044.285-.451.562-.295,1.534-1.307,1.754-.325.071-.108.625-.133.957a1.072,1.072,0,0,1-.974,1.051c-.595-.3-.008-.985-.5-1.278-.969.708-.533,2.3-1.918,2.962.392-1.371.841-2.578,1.065-3.824s1.488-2.251.9-3.873A41.4,41.4,0,0,0,.185,13.833a4.011,4.011,0,0,1,.225-2.5C1.1,9.671,1.561,7.907,2.131,6.19c.305-.918.6-1.843.983-2.731A2.892,2.892,0,0,0,3.4,2.737C3.643,1.229,3.737,1.106,5.083,0" transform="translate(120.858 14.267)" fill="#3f0a3d"/>
    </g>
  </g>
</svg>
