<svg xmlns="http://www.w3.org/2000/svg" xmlns:xlink="http://www.w3.org/1999/xlink" width="176" height="139" viewBox="0 0 176 139">
  <defs>
    <clipPath id="clip-path">
      <rect id="Rectangle_16" data-name="Rectangle 16" width="176" height="139" transform="translate(-23 708)" fill="#fff" stroke="#707070" stroke-width="1"/>
    </clipPath>
  </defs>
  <g id="Pattern_02" data-name="Pattern 02" transform="translate(23 -708)" clip-path="url(#clip-path)">
    <g id="_76" data-name="76" transform="translate(-72 700)">
      <path id="Fill_1" data-name="Fill 1" d="M23.982,104a4.92,4.92,0,0,1-3.473-1.375,1.908,1.908,0,0,0-.438-.29c-.287-.149-.583-.293-.869-.432l-.374-.183.529-.388.035-.026.568-.416c-.032-.027-.063-.055-.092-.083a.878.878,0,0,0-.19-.148c-.285-.145-.578-.285-.862-.42l-.35-.167a5.157,5.157,0,0,0,.437-.309,1.976,1.976,0,0,1,.945-.494c14.618-1,28.968-4.635,42.846-8.151l.034-.009c1.358-.344,2.763-.7,4.144-1.047a445.516,445.516,0,0,0,53.472-16.744c3.764-1.468,7.662-3.115,11.916-5.035a68.1,68.1,0,0,0,8.339-4.515c-.438.148-.883.3-1.313.449l0,0c-.954.328-1.941.668-2.919.977-1.3.412-2.62.821-3.9,1.216-1.672.518-3.4,1.054-5.093,1.6a2.63,2.63,0,0,0-.76.465c-.11.086-.224.174-.339.251l-.279.074-1,.266c-.114.071-.227.155-.336.237a2.21,2.21,0,0,1-.749.423c-1.879.453-3.787.929-5.632,1.39-4.757,1.187-9.673,2.415-14.558,3.358-6.97,1.346-14.107,2.46-21.008,3.537-1.653.258-3.36.524-5.042.79-1.287.2-2.613.3-3.9.392-.914.066-1.858.134-2.78.241-.676.079-1.356.214-2.014.345-.708.141-1.439.287-2.166.362-3.3.343-6.8.657-10.985.987-.048,0-.1.006-.15.006a4.5,4.5,0,0,1-.865-.116l-.01,0a4.514,4.514,0,0,0-.86-.114h-.06a1.341,1.341,0,0,0-.588.231,1.346,1.346,0,0,1-.588.232l-1.54.049c-2.494.08-5.071.163-7.6.163-.4,0-.8,0-1.175-.006q-1.1-.012-2.21-.02c-3.882-.032-7.895-.065-11.812-.412-7.992-.709-14.483-1.994-20.181-5.965C4.4,72.534.8,69.355.119,64.011a14.877,14.877,0,0,1,2.51-10.264c.929-1.441,2-2.824,3.038-4.161.643-.83,1.307-1.686,1.931-2.548a5.866,5.866,0,0,0,.576-1.1,6.765,6.765,0,0,1,.494-.981c.1-.162.209-.325.313-.49l0-.007A12.834,12.834,0,0,1,10.8,42.046,97.833,97.833,0,0,1,26.613,29.917c3.437-2.165,7.993-4.973,12.765-7.488A192.261,192.261,0,0,1,83.135,5.291,171.454,171.454,0,0,1,114.287.2C116.565.065,119,0,121.954,0c2.081,0,4.2.032,6.244.063h.005c1.714.026,3.487.053,5.228.061,3.353.015,6.761.063,10.058.11,1.787.025,3.632.051,5.447.072a98.546,98.546,0,0,1,27.927,3.9c5.359,1.638,9.235,3.827,12.2,6.889a14.592,14.592,0,0,1,3.723,7.742,14,14,0,0,1-1.094,8.491,26.731,26.731,0,0,1-8.768,10.076c-.5.345-1.008.691-1.5,1.025l-.007,0a52.97,52.97,0,0,0-4.362,3.176,23.263,23.263,0,0,0-2.244,2.266,25.02,25.02,0,0,1-2.085,2.13c-1.288,1.12-2.651,2.2-3.97,3.237-1.158.914-2.355,1.858-3.5,2.828a6.908,6.908,0,0,0-1.155,1.411,10.056,10.056,0,0,1-.793,1.059c-.518.577-1.032,1.179-1.529,1.762a33.824,33.824,0,0,1-4.3,4.461c-2.933,2.368-6.136,4.5-9.233,6.567l-1.368.913c-1.327.888-2.746,1.683-4.119,2.453l-.005,0h0c-.613.344-1.248.7-1.865,1.058a4.339,4.339,0,0,0-3.551,1.826l-1.806.819-.007,0c-1.7.771-3.454,1.568-5.184,2.343-.352.158-.724.286-1.083.409-.152.052-.309.107-.464.163q-1.955.778-3.917,1.562l-.008,0-1.713.684c-.2.133-.391.281-.579.425a5.434,5.434,0,0,1-1.292.809A336.626,336.626,0,0,1,79.331,93.788c-2.282.543-4.6,1.107-6.842,1.652l-.015,0c-6.585,1.6-13.395,3.257-20.149,4.6C46.493,101.2,40.5,102.048,34.7,102.871H34.7c-2.1.3-4.273.606-6.406.925a18.125,18.125,0,0,1-2.384.141c-.5.007-1.014.015-1.518.049C24.252,104,24.115,104,23.982,104ZM76.208,89.2l-2.31.572c.036.138.073.276.11.414l2.281-.687C76.262,89.4,76.235,89.3,76.208,89.2Zm34.254-11.294h0a1.521,1.521,0,0,0-.286.2c-.064.049-.129.1-.18.136-.165.118-.326.256-.482.389a3.332,3.332,0,0,1-1.077.7c-8.384,2.642-16.922,5.287-25.18,7.845l-.009,0L81.9,87.6c-.9.279-1.82.541-2.71.794q-.594.169-1.187.34a4.2,4.2,0,0,0,.572.039,5.278,5.278,0,0,0,1.559-.255c9.519-2.878,18.841-5.7,28.239-8.576a2.571,2.571,0,0,1,.716-.142.476.476,0,0,1,.379.14,1.173,1.173,0,0,1,.117.9,1.681,1.681,0,0,0,.187.787c.049.121.1.246.137.368.064-.109.133-.218.2-.324a6.139,6.139,0,0,0,.41-.721,4.242,4.242,0,0,0,.224-.709,1.846,1.846,0,0,1,1.229-1.584c4.771-1.735,9.548-3.583,14.2-5.491,2.288-.94,4.566-2.014,6.769-3.053.787-.371,1.6-.754,2.4-1.125l.284-.131c1.858-.861,3.78-1.752,5.637-2.693a13.557,13.557,0,0,0,1.647-1.05c.235-.166.478-.338.722-.5l-.036-.057c-.066-.1-.133-.21-.2-.315-.505.273-1.016.557-1.509.832-1.088.606-2.209,1.232-3.348,1.769l-.288.136c-3.677,1.736-7.479,3.531-11.283,5.143-4.415,1.871-8.8,3.591-14.032,5.6a4.608,4.608,0,0,0-.489.236,2.429,2.429,0,0,1-1.091.377,1.216,1.216,0,0,1-.885-.419Zm-8.426-66.5a1.868,1.868,0,0,0-.882.187,5.711,5.711,0,0,1-2.424.4c-.374.009-.761.018-1.127.056a.144.144,0,0,0-.062.031.173.173,0,0,1-.056.031c-1.592.378-3.173.89-4.7,1.384-1,.324-2.037.659-3.058.95-9.376,2.676-19.339,5.6-29,9.316-.692.267-1.391.553-2.067.83-1.412.579-2.872,1.177-4.351,1.627-.566.172-1.143.335-1.7.492a20.828,20.828,0,0,0-6.784,2.826,8,8,0,0,1-2.123.957c-.412.14-.839.285-1.237.461a4.688,4.688,0,0,0-.838.526c-.119.087-.241.176-.364.258l-3.55,2.1c-.493.222-1,.437-1.491.645a35.033,35.033,0,0,0-3.208,1.489A85.378,85.378,0,0,0,14.236,49.865,34.757,34.757,0,0,0,10.8,54.043c-.55.745-1.118,1.514-1.705,2.242a15.064,15.064,0,0,0-3.422,8.872,4.448,4.448,0,0,0,.768,2.884,10.2,10.2,0,0,0,5.416,3.005c-1.754-3.206-1.933-5.779-.562-8.094a24.5,24.5,0,0,1,3.971-5.07c4.819-4.664,10.774-7.95,15.977-10.663A171.29,171.29,0,0,1,59.2,35.938c6.323-1.991,12.674-3.675,18.877-5.005a186.65,186.65,0,0,1,19.279-3.1c4.107-.438,8.532-.813,13.528-1.147,2.757-.183,5.556-.276,8.321-.276a128.191,128.191,0,0,1,19.117,1.449,66.355,66.355,0,0,1,14.521,3.633A31.11,31.11,0,0,1,159.5,34.9a14.554,14.554,0,0,1,4.819,5.661c.209.438.424.625.718.625a1.21,1.21,0,0,0,.545-.164c.672-.351,1.366-.689,2.038-1.015.88-.428,1.79-.87,2.66-1.348.259-.142.532-.284.8-.42a9.1,9.1,0,0,0,2.787-1.9,13.591,13.591,0,0,0,3.429-8.2,10.235,10.235,0,0,0-1.669-6.822l-.112-.153c-1.674-2.283-3.405-4.644-6.045-5.851a4.329,4.329,0,0,1-1.265-1.029,2.847,2.847,0,0,0-2.058-1.181c-.075,0-.152,0-.23.012H165.9c-.088,0-.19-.176-.3-.362a2.608,2.608,0,0,0-.191-.3,1.933,1.933,0,0,0-.964-.544,1.564,1.564,0,0,1-1.139-.847c-.024.012-.048.026-.071.039a.525.525,0,0,1-.168.072c-.11.017-.226.046-.338.074a2.367,2.367,0,0,1-.54.092.672.672,0,0,1-.223-.034q-.8-.279-1.607-.563a74.5,74.5,0,0,0-9.851-2.959,43.972,43.972,0,0,0-8.837-.985c-.7,0-1.4.022-2.085.066-.637.04-1.289.13-1.919.217a19.663,19.663,0,0,1-2.661.244,7.092,7.092,0,0,1-2.45-.4.448.448,0,0,0-.153-.025,1.937,1.937,0,0,0-.788.3,2.629,2.629,0,0,1-.836.334l-1.914.24h-.011c-3.362.423-6.838.859-10.27,1.141a39.908,39.908,0,0,0-4.407.7,30.392,30.392,0,0,1-5.841.76,14.148,14.148,0,0,1-1.629-.092,6.215,6.215,0,0,0-.727-.047,2.835,2.835,0,0,0-2.361,1.043.663.663,0,0,1-.561.2c-.141,0-.3-.015-.46-.03l-.026,0c-.191-.018-.363-.032-.543-.032Zm42.123,45.838c-8.285,2.856-16.888,5.457-25.569,7.73-8.443,2.211-17.21,4.177-26.06,5.845C113.272,67.5,129.678,63.191,144.159,57.246ZM94.24,33.866a2,2,0,0,0-.414.039,7.968,7.968,0,0,0-1.4.484,7.907,7.907,0,0,1-1.405.486c-2.692.561-5.435,1.112-8.086,1.644l-.009,0c-4.622.928-9.4,1.888-14.082,2.937a58.142,58.142,0,0,0-7.7,2.5l-.015.006-.8.3c-1.8.675-3.663,1.246-5.468,1.8a56.107,56.107,0,0,0-8.893,3.281,2.211,2.211,0,0,1-.661.17,2.417,2.417,0,0,0-.622.151c-1.414.633-2.929,1.324-4.432,2.092-.595.3-1.184.641-1.754.969-.717.412-1.459.838-2.217,1.2-.737.348-1.516.637-2.269.916-.592.219-1.2.446-1.791.7a35.89,35.89,0,0,0-7.94,5.258c-.517.413-1.052.84-1.585,1.256a31.627,31.627,0,0,0-4.027,4.019l-.49.55A15.575,15.575,0,0,0,16.443,67.2l-.008.014-.141.241a1.211,1.211,0,0,0-.187,1.148,1.383,1.383,0,0,0,1.157.59c.9.1,1.813.227,2.7.347a50.075,50.075,0,0,0,6.664.607h.066c14.161,0,28.081-1.919,43.506-4.238,7.988-1.2,15.982-2.68,24.151-4.218,14.686-2.765,27.592-5.794,39.458-9.259A263.375,263.375,0,0,0,160.8,43.167c.513-.212.777-.421.831-.659.066-.293-.2-.633-.488-.956a19.078,19.078,0,0,0-8.014-5.023,62.935,62.935,0,0,0-7.887-2.057c-1.264-.272-2.569-.553-3.841-.866a.95.95,0,0,1-.438-.377,1.882,1.882,0,0,0-.288-.309,7.53,7.53,0,0,0-.7-.465c-.1-.061-.2-.124-.3-.188l-.237.288-.163.2.542.1.542.1-.257.338c-.218-.038-.443-.1-.66-.151a4.871,4.871,0,0,0-1.162-.2,1.889,1.889,0,0,0-.264.018,7.958,7.958,0,0,1-1.125.075,18.936,18.936,0,0,1-2.532-.228,19.162,19.162,0,0,0-2.515-.229c-2.545-.006-5.132-.172-7.633-.333-.966-.062-1.964-.126-2.944-.181-.368-.02-.742-.055-1.1-.089-.548-.051-1.114-.1-1.671-.108h-.054c-.568,0-1.146.058-1.7.115-.238.024-.485.049-.728.069l-.106.009c-.572.047-1.164.1-1.745.158a4.811,4.811,0,0,0-.6.119,3.436,3.436,0,0,1-.743.126.656.656,0,0,1-.352-.084,2.449,2.449,0,0,0-1.32-.379,5.634,5.634,0,0,0-1.539.293c-.124.036-.247.071-.371.1-.091.025-.182.051-.272.077a3.545,3.545,0,0,1-.942.188,1.166,1.166,0,0,1-1.088-.829c-.07-.153-.345-.221-.587-.282-.069-.017-.133-.033-.193-.051-.026,0-.095.086-.143.165-.023.037-.073.128-.056.161.16.309.208.51.145.614-.037.062-.112.09-.235.09a2.052,2.052,0,0,1-.264-.025l-.013,0a1.925,1.925,0,0,0-.24-.022.389.389,0,0,0-.1.012,8.868,8.868,0,0,1-1.065.2l-.276.04c-.687.1-1.5.223-2.307.328-.295.038-.609.051-.912.062a4.139,4.139,0,0,0-1.853.345,1.616,1.616,0,0,1-.8.243A2.119,2.119,0,0,1,97,33.354l-.113-.061,0-.005,0,0c-.09.071-.179.154-.266.234a1.462,1.462,0,0,1-.707.452,2.282,2.282,0,0,1-.269.015,5.811,5.811,0,0,1-.713-.06A5.783,5.783,0,0,0,94.24,33.866ZM151.911,47.98h0c-10.207,3.67-20.742,6.875-32.209,9.8-10.278,2.621-21.043,4.946-32.909,7.109l.012.053,0,.01c.022.1.044.191.067.286,1.269-.236,2.558-.471,3.8-.7,2.733-.5,5.559-1.013,8.331-1.568,10.243-2.052,21.175-4.376,31.713-7.458,4-1.17,8.03-2.485,11.928-3.757l.666-.217c1.438-.469,2.881-1,4.277-1.521l.006,0c.664-.246,1.351-.5,2.028-.744.572-.206,1.156-.412,1.72-.61l.71-.25-.07-.207ZM107.756,27.917a12.606,12.606,0,0,0-1.488.082c-4.42.522-9.05,1.141-14.153,1.892a187.871,187.871,0,0,0-36.227,8.567c-7.292,2.593-14.51,5.6-20.608,8.191a67.379,67.379,0,0,0-16.06,9.57l.062.11c.036.063.069.122.1.181.569-.366,1.143-.742,1.7-1.1,1.205-.789,2.449-1.6,3.7-2.358A123.821,123.821,0,0,1,45.041,43.023l1.21-.457C51.983,40.4,57.909,38.159,63.887,36.5c7.779-2.162,15.822-3.871,23.6-5.524l.767-.163a70.188,70.188,0,0,1,7.39-1.026c1-.1,2.041-.21,3.057-.333,1.781-.216,3.6-.407,5.349-.591l.775-.081c1.435-.151,2.892-.3,4.3-.439l.072-.007,1.8-.182A29.387,29.387,0,0,0,107.756,27.917Zm13.836-26.7c-14.411,0-44.012,2.762-80.35,21.266a135.014,135.014,0,0,0-24.25,15.671A214.607,214.607,0,0,1,41.643,23a195.689,195.689,0,0,1,25.929-11.28,188.573,188.573,0,0,1,27.2-7.3,193.227,193.227,0,0,1,28.451-3.2C122.721,1.222,122.174,1.217,121.592,1.217ZM96.971,32.224a.555.555,0,0,0-.149.019,9.233,9.233,0,0,0-1.062.388c-.145.06-.294.121-.441.178l1.612.438-.015.018-.015.018.036-.028.007-.005-.007,0-.006,0,.283-.343.466-.564c-.116-.015-.223-.038-.326-.059A1.961,1.961,0,0,0,96.971,32.224ZM166.121,7.64c-.1,0-.208,0-.309.007s-.225.007-.336.007c.072.08.14.168.207.252a2.211,2.211,0,0,0,.487.5c.621.408,1.261.808,1.88,1.195.977.611,1.987,1.241,2.941,1.918a21.839,21.839,0,0,1,9.4,15.2,21.159,21.159,0,0,1,.082,3.681c-.022.637-.044,1.3-.044,1.989,3.215-2.387,6.767-5.418,8.719-9.806a5.785,5.785,0,0,0-.393-6.049c-2.63-3.471-6.552-4.931-10.344-6.343q-.547-.2-1.092-.409a9.572,9.572,0,0,0-1.639-.4,4.475,4.475,0,0,1-3.109-1.495,2.962,2.962,0,0,0-.209.24c-.143.176-.292.358-.414.358h-.015c-1.176-.151-2.367-.339-3.52-.52-.623-.1-1.265-.2-1.9-.294A2.673,2.673,0,0,0,166.121,7.64Zm-18.727-6.1c-.007.125-.013.252-.019.377v.018l12.329.55c0-.056.005-.112.008-.168s.006-.107.009-.16l-6.254-.313-.06,0-.163-.008Z" fill="#3f0a3d"/>
    </g>
  </g>
</svg>
