<svg xmlns="http://www.w3.org/2000/svg" xmlns:xlink="http://www.w3.org/1999/xlink" width="176" height="139" viewBox="0 0 176 139">
  <defs>
    <clipPath id="clip-path">
      <rect id="Rectangle_15" data-name="Rectangle 15" width="176" height="139" transform="translate(1264 920)" fill="#fff" stroke="#707070" stroke-width="1"/>
    </clipPath>
  </defs>
  <g id="Pattern_01" data-name="Pattern 01" transform="translate(-1264 -920)" clip-path="url(#clip-path)">
    <g id="_22" data-name="22" transform="translate(1321.072 939.323)">
      <path id="Fill_419" data-name="Fill 419" d="M6.966,16.69a.445.445,0,0,1-.194-.038C4.8,15.7,2.591,14.49,1.3,12.3A5.047,5.047,0,0,1,.4,9.2,7.934,7.934,0,0,0,.388,7.749,4.243,4.243,0,0,1,.8,5.043L0,4.714c.083-.143.175-.284.264-.42a4.253,4.253,0,0,0,.5-.925c.6-1.746,2.151-2.4,3.592-2.807L4.6.493A9.751,9.751,0,0,1,7.286,0c.12,0,.24,0,.356.012a7.016,7.016,0,0,1,5.879,3.7,11.542,11.542,0,0,1,1.47,3.309l.016.07a4.889,4.889,0,0,1,.143,2.4c-1.061,3.29-2.842,5.373-5.445,6.368-.628.24-1.287.434-1.924.621l-.011,0-.567.168A.841.841,0,0,1,6.966,16.69ZM8.085,3.982c-.216.372-.636.4-1.042.432-.536.039-1.09.08-1.209.886-.036.24-.278.317-.535.4a.853.853,0,0,0-.549.334.665.665,0,0,0,.015.517,5.216,5.216,0,0,0-.45,2.979,9.1,9.1,0,0,1-.043,1.842c.353,0,.692.017,1.019.034.308.016.6.031.882.031a4.508,4.508,0,0,0,1.027-.1c1.571-.365,3.8-3.615,3.672-5.349-.015-.221-.091-.623-.279-.733-.6-.341-1.225-.647-1.834-.942-.226-.11-.451-.219-.675-.331Z" transform="translate(65.185 76.819)" fill="#02676b"/>
      <path id="Fill_421" data-name="Fill 421" d="M1.326,3.252C.632,3.094.227,2.8.477,1.982a2.247,2.247,0,0,0,.446-.208C2.337.751,4.078.6,5.671.091A3.005,3.005,0,0,1,8.051.513C9.859,1.9,11.866,3.1,12.722,5.483a6.717,6.717,0,0,1-.827,6.092c-.724.933-1.739,1.519-2.485,2.467-1.223-.2-2.512.3-3.728-.437-.568-.344-3.042-1.652-3.526-2.013A6.291,6.291,0,0,1,.166,8.268c-.087-.258-.226-.587-.139-.8C.587,6.1.189,4.455,1.326,3.252" transform="translate(0 103.94)" fill="#02676b"/>
      <path id="Fill_423" data-name="Fill 423" d="M11.365,14.022a3.131,3.131,0,0,1-1.311-.283,2.5,2.5,0,0,0-.818-.212.2.2,0,0,0-.16.047.866.866,0,0,1-.673.405,1.576,1.576,0,0,1-.719-.266l-.01-.005a1.6,1.6,0,0,0-.74-.272.693.693,0,0,0-.155.017.191.191,0,0,1-.042,0c-.132,0-.267-.138-.422-.3a1.382,1.382,0,0,0-.913-.535,1.2,1.2,0,0,1-.669-.429,2.53,2.53,0,0,0-.468-.384,1.778,1.778,0,0,1-.437-.4,1.078,1.078,0,0,0-.805-.5.937.937,0,0,0-.136.01,3.618,3.618,0,0,0-1.1-1.5,4.97,4.97,0,0,1-.855-.974A7.394,7.394,0,0,1,.719,1.677,2.732,2.732,0,0,1,3.087,0,2.8,2.8,0,0,1,4.764.62L4.8.645a2.329,2.329,0,0,0,1.282.641A1.313,1.313,0,0,0,6.9.947c.115.182.234.274.356.274s.271-.11.41-.328A1.021,1.021,0,0,1,8.586.4,2.064,2.064,0,0,1,9,.444a12.184,12.184,0,0,1,4.872,1.895,12.823,12.823,0,0,1,2.207,2.349c.3.374.6.76.92,1.121a2.493,2.493,0,0,0,.267,1.1,1.646,1.646,0,0,1-.227,2.11l.474.164.022.007.445.154c-.127.4-.251.793-.372,1.176l-.251.794-.786.092-.383.044c.1.138.181.243.265.357l.15.2a3.492,3.492,0,0,1-2.755,1.557c-.049,0-.1,0-.149,0h-.049a2.724,2.724,0,0,0-.836.188l-.108.036A4.285,4.285,0,0,1,11.365,14.022ZM4.412,4.741c-.936.467-.908,1.147-.879,1.866a3.417,3.417,0,0,1-.055.983,10.308,10.308,0,0,0,6.7,2.494q.164,0,.324-.006a3.828,3.828,0,0,0,2.763-1.226c.316-.326.631-.639.964-.97l.381-.379c-.09-.123-.177-.228-.253-.321a1.468,1.468,0,0,1-.311-.478A2.333,2.333,0,0,0,11.82,4.776a3.281,3.281,0,0,1-1.043-.333,5.627,5.627,0,0,0-.657-.259,4.322,4.322,0,0,0-.971-.214c-.085,0-.14.016-.161.048-.124.186-.242.273-.372.273a.686.686,0,0,1-.332-.133l-.02-.012A.759.759,0,0,0,7.872,4a.587.587,0,0,0-.386.172l-.844.792-.025.023L5.755,5.8,4.96,5.172l-.548-.431Z" transform="translate(96.569 54.578)" fill="#02676b"/>
      <path id="Fill_425" data-name="Fill 425" d="M3.671.631A2.639,2.639,0,0,1,6.144.16c-.115.155-.212.289-.41.561C6.16.832,6.852.854,6.9,1.048c.357,1.341,1.87,1.721,2.323,2.964.765,2.1,1.435,4.2.313,6.377-.125.242-.252.3-.074.64.5.945.034,1.624-.832,2.115-.6.341-.269.68.082,1.021L6.463,17.055h-2.4c-.444-.478-.99-1.054-1.524-1.64A14.033,14.033,0,0,1,.991,13.926,5.719,5.719,0,0,1,.15,9.346c.257-1.241.866-2.405,1.172-3.64a2.5,2.5,0,0,1,1.2-1.9A1.6,1.6,0,0,0,3.06,2.557c-.014-.626.422-.861.695-1.257.09-.129-.045-.411-.084-.668" transform="translate(125.864 112.69)" fill="#02676b"/>
      <path id="Fill_427" data-name="Fill 427" d="M5.942,14.8v0c-.08-.493-.143-.889-.2-1.251-.048-.3-.091-.566-.136-.847-.228.334-.437.638-.644.939l-.01.014-.268.389c-.065-.061-.126-.131-.186-.2-.116-.133-.216-.247-.3-.247H4.185a2.155,2.155,0,0,1-.317.024,2.576,2.576,0,0,1-1.854-1.067,4.434,4.434,0,0,0-.947-.821.592.592,0,0,1-.151-.38c-.009-.09,0-.154.024-.175.748-.639.427-1.173.117-1.69a2.283,2.283,0,0,1-.333-.731L.483,8.97l-.242.216a.637.637,0,0,0-.06-.051C.138,9.1.093,9.064.1,9.031a5.046,5.046,0,0,0-.046-.808A2.017,2.017,0,0,1,.584,6.215a.887.887,0,0,0,.207-.5A1.515,1.515,0,0,1,.924,5.28a6,6,0,0,0,.334-.752,2.626,2.626,0,0,1,.95-1.421,1.548,1.548,0,0,0,.63-.985A1.776,1.776,0,0,1,3.456,1.1,6.1,6.1,0,0,1,6.894,0,4.217,4.217,0,0,1,8.373.249a7.726,7.726,0,0,1,4.5,4.6,9.888,9.888,0,0,1,.677,5.36,4.378,4.378,0,0,1-1.942,2.426.374.374,0,0,1-.233.063,2.822,2.822,0,0,1-.644-.126,5.837,5.837,0,0,0-.573-.133c.009.039.017.09.025.148a1.417,1.417,0,0,0,.17.562c.169.26.226.456.175.6a.422.422,0,0,1-.3.237.682.682,0,0,1-.207.036.336.336,0,0,1-.256-.1.732.732,0,0,1-.132-.548c0-.046-.075-.1-.193-.171-.07-.045-.149-.095-.232-.158-.343.286-.712.594-1.156.966C8,13.8,7.938,13.6,7.84,13.258l-.05-.174-.922.855-.923.855Zm1.3-11.1a2.109,2.109,0,0,0-.923.47c-.151.106-.307.214-.449.3a5.8,5.8,0,0,0-.956,1.376c-.052.092-.1.2-.158.306-.182.364-.388.777-.625.807-.556.073-.572.341-.591.652,0,.076-.009.155-.022.234a1.758,1.758,0,0,1-.225.561c-.042.078-.082.151-.114.223a2.792,2.792,0,0,0,2.031.953A6.329,6.329,0,0,0,7.727,8.8c1.845-.857,2.01-2.316,1.912-3.765-.032-.032-.07-.063-.106-.093a.618.618,0,0,1-.2-.218c-.258-.656-.828-.758-1.379-.857a3.643,3.643,0,0,1-.6-.143A.323.323,0,0,0,7.245,3.7Z" transform="translate(142.036 39.691)" fill="#02676b"/>
      <path id="Fill_429" data-name="Fill 429" d="M4.635.259l.718.606c.138-.278.241-.766.425-.8A2.122,2.122,0,0,1,7.211.18a13.358,13.358,0,0,1,2.881,2.47,9.653,9.653,0,0,1,1.532,3.267,3.148,3.148,0,0,1-.307,2.231,8.5,8.5,0,0,1-3.263,4.09c-.736.428-1.564.447-2.262.879a5.455,5.455,0,0,1-.932.369l-.427-.757c-.247.353-.413.311-.79.05-.678-.469-2-1.668-2.568-2.135-1.839-1.5-.78-3.37-.7-5.082.019-.43.705-.829,1.111-1.269a6.1,6.1,0,0,1,2.8,3.524C5.765,7.632,6,6.257,6.814,5.491c.179-.169.058-.656.091-1.353L5.336,5.705c-1.108-.079-.975-1.414-1.908-1.5a12.184,12.184,0,0,1,0-2.587c.1-.47.712-.834,1.2-1.364" transform="translate(32.909 74.672)" fill="#02676b"/>
      <path id="Fill_431" data-name="Fill 431" d="M0,6.326,1.631,4.7H4.34c.282-1.182-.591-.7-1.155-.86.06-.152.077-.334.176-.42.69-.593-.332-.824-.234-1.426C3.589.891,4.878.69,5.846.092A1.53,1.53,0,0,1,7,.153c1.774.7,2.416,2.292,3.13,3.9.46,1.031.032,2.25.837,3.151A16.037,16.037,0,0,1,9.96,10.709a3.957,3.957,0,0,1-3.108,1.833c-.672.067-1.259.857-1.919.345-.56-.434-1.349-.19-1.858-.877-.363-.49-1.169-.523-1.388-1.378-.108-.422-.915-.49-1.28-1.16C-.182,8.389.254,7.356,0,6.326" transform="translate(121.05 11.791)" fill="#02676b"/>
      <path id="Fill_433" data-name="Fill 433" d="M6.475,14.536a4.279,4.279,0,0,1-.73-.067l-.212-.037c-2.315-.4-2.359-.412-3.457-1.619a6.7,6.7,0,0,1-1.7-3.448,5.443,5.443,0,0,0-.144-.572A1.708,1.708,0,0,1,.326,7.148C.15,6.979.069,6.839.079,6.722c.012-.143.153-.241.3-.345C.55,6.261.74,6.13.766,5.913L.346,5.1,0,4.425c.136-.717.654-.935,1.156-1.146a1.793,1.793,0,0,0,1.061-.813c.243-.509.743-.648,1.273-.794A2.451,2.451,0,0,0,4.918.89L4.311.481l-.3-.2a.63.63,0,0,0,.04-.064c.039-.067.087-.15.148-.16A3.226,3.226,0,0,1,4.776,0,4.579,4.579,0,0,1,7.745,1.466,8.12,8.12,0,0,1,9.152,3.3c.17.273.346.555.532.822a.794.794,0,0,1,.077.67c-.049.242-.091.452.193.624a1.178,1.178,0,0,1,.535,1.3,1.782,1.782,0,0,0,.216.958,1,1,0,0,1,.144.579,7.787,7.787,0,0,0-.243,1.079,7.252,7.252,0,0,1-.255,1.106A8.346,8.346,0,0,1,8.2,13.911,2.44,2.44,0,0,1,6.475,14.536ZM3.733,3.716v0c-.3,0-.482.238-.661.468a1.492,1.492,0,0,1-.306.326c.075.3.147.584.217.86.181.713.352,1.387.505,2.051.029.12.112.521-.007.632-.71.658-.4,1.238-.109,1.8a3.511,3.511,0,0,1,.275.612l.36,0c1.226,0,1.326-.144,1.979-1.083l.159-.228A6.367,6.367,0,0,0,6.98,5.043c0-.179-.01-.354-.013-.53a1.381,1.381,0,0,0-.529-.846.733.733,0,0,0-.5-.154c-.09,0-.185.008-.276.015s-.193.016-.288.016A.733.733,0,0,1,4.684,3.2l-.456.7a.907.907,0,0,0-.5-.183Z" transform="translate(110.604 82.07)" fill="#02676b"/>
      <path id="Fill_435" data-name="Fill 435" d="M2.132,0C4.121,1.12,4.58,2.055,3.487,3.762c-.563.881.134,1.873-.662,2.6-.118.107.192.69.31,1.051.326.991.648,1.08,1.727.8,2.06-.542,3.035-2,3.531-3.973-.768-.218-1.54-.426-2.306-.657-.935-.281-.6-1.332-.979-1.814L6.517.35c1.332-.745,2.159.711,3.373,1.04C10.782,2.829,12.025,4.077,11.9,6a5.691,5.691,0,0,1-3.87,5.435A5.239,5.239,0,0,1,2.151,10.22,5.134,5.134,0,0,1,0,6.3,8.126,8.126,0,0,1,2.132,0" transform="translate(50.641 28.705)" fill="#02676b"/>
      <path id="Fill_437" data-name="Fill 437" d="M6.032,12.576c-1.9.557-3-.721-4.278-1.483C.584,10.394.432,9.015.086,7.883-.233,6.835.411,5.745.791,4.73A20.685,20.685,0,0,1,2.072,2.291l-.755-.274.958-1.009L.77.736c.423-.315.722-.722.993-.7.757.051,1.5-.211,2.293.224A8.657,8.657,0,0,1,7.864,5.2a6.243,6.243,0,0,1-1.832,7.379" transform="translate(43.692 105.723)" fill="#02676b"/>
      <path id="Fill_439" data-name="Fill 439" d="M6.735,1.052,6.141,2.244a6.289,6.289,0,0,1,1.8,5.322,2.271,2.271,0,0,1-.408,1.369c-.694.87-.789,2.14-2.136,2.6a2.353,2.353,0,0,1-1.612.163c-1.093-.562-2.35-1-3.028-2.12A4.383,4.383,0,0,1,.035,7.7C-.2,5.269.785,3.255,2.019,1.324a2.916,2.916,0,0,1,1.306-1C3.969.031,4.368-.206,5.013.276a8.624,8.624,0,0,0,1.722.776" transform="translate(67.26 127.616)" fill="#02676b"/>
      <path id="Fill_441" data-name="Fill 441" d="M3.759,9.648C2.9,8.984,2.389,7.785,1.044,7.835A6.025,6.025,0,0,1,.071,6.077a3.037,3.037,0,0,1,1.668-3.6c.184-.087.311-.3.511-.5L1.71,1.8,3.026.485l-.3-.357a2.086,2.086,0,0,1,.6-.071C4.2.208,5.209-.389,5.954.507A8.543,8.543,0,0,1,7.92,4.471C8.3,6.505,6.331,8.754,4.84,9.479c-.38.184-.852-.561-1.081.169" transform="translate(149.037 68.952)" fill="#02676b"/>
      <path id="Fill_443" data-name="Fill 443" d="M7.45,5.607a9.807,9.807,0,0,0,.006,1.184c.228,1.483-1.01,2.008-1.87,2.661s-1.674-.3-2.475-.541A6.236,6.236,0,0,1,1.118,7.424,4.133,4.133,0,0,1,.331,2.992c.153-.3-.01-.808.7-.874C1.455,2.078,1.856,1.4,2.2.959,3.089-.2,3.871-.33,4.827.68A8.978,8.978,0,0,1,6.621,2.765c.516,1.024,1.1,1.955.829,2.843" transform="translate(87.415 99.599)" fill="#02676b"/>
      <path id="Fill_445" data-name="Fill 445" d="M4.246,0A9.585,9.585,0,0,1,6.74,3.324c.615,1.769.28,2.735-1.225,3.767C3.8,8.266,2.653,8.063,1.156,6.536c-.2-.208-.41-.411-.575-.575C.333,5.2.9,4.311.087,3.713A2.973,2.973,0,0,1,3.151,0c.363-.006.726,0,1.1,0" transform="translate(66.803 55.447)" fill="#02676b"/>
      <path id="Fill_447" data-name="Fill 447" d="M.991,4.543l.874-.682-.837-.7.438-.487L0,2.349C.619.686,2.141.565,3.334.022c.233-.106.736.2,1.024.43A8.818,8.818,0,0,1,6.971,3.926c.078.18.182.506.108.57-1.032.881.33,2.585-1.023,3.175-.265.115-.861-.565-1.573-.615.289.317.577.634.906,1-.531.352-1.031.717-1.568,1.019a1.181,1.181,0,0,1-.643.008c-.128-.014-.361-.111-.357-.143C3,7.742,1.576,8.629,1.417,7.846c-.079-.388-.37-.743-.406-1.128C.943,6,.991,5.271.991,4.543" transform="translate(90.377 28.441)" fill="#02676b"/>
      <path id="Fill_449" data-name="Fill 449" d="M.206.962V0H2.153c.987,1.483,2.338,2.887,1.861,5.121L2.761,5.2V3.4c-.35.067-.619.038-.718.154-.165.193-.182.506-.329.72-.272.4-.422.307-.787-.28A12.166,12.166,0,0,0,0,2.833l1.061-.489c-.92-.454-.9-.438-.146-1.226.131-.136.057-.47.092-.9-.325.3-.478.441-.8.74" transform="translate(94.264 0)" fill="#02676b"/>
    </g>
  </g>
</svg>
